<mxfile host="app.diagrams.net" modified="2023-10-04T03:23:52.788Z" agent="Mozilla/5.0 (Windows NT 10.0; Win64; x64) AppleWebKit/537.36 (KHTML, like Gecko) Chrome/117.0.0.0 Safari/537.36" version="22.0.2" etag="5c_VUba9wrzlM6RYhKqn" type="github">
  <diagram name="페이지-1" id="jO-AOwKytf2gU6IyxH2v">
    <mxGraphModel>
      <root>
        <mxCell id="0" />
        <mxCell id="1" parent="0" />
      </root>
    </mxGraphModel>
  </diagram>
</mxfile>
